<mxfile host="app.diagrams.net" modified="2023-11-23T06:51:44.505Z" agent="Mozilla/5.0 (Windows NT 10.0; Win64; x64) AppleWebKit/537.36 (KHTML, like Gecko) Chrome/119.0.0.0 Safari/537.36" etag="QCxfR9bvMCWwwYXCrHhU" version="22.1.3" type="device">
  <diagram id="FaRgXX7kM3Oss15dgZgJ" name="Page-1">
    <mxGraphModel dx="1290" dy="530" grid="0" gridSize="10" guides="1" tooltips="1" connect="1" arrows="1" fold="1" page="1" pageScale="1" pageWidth="827" pageHeight="1169" math="0" shadow="0">
      <root>
        <mxCell id="0" />
        <mxCell id="1" parent="0" />
        <mxCell id="tYEVkuINWoHFvl_4pbUM-1" value="Dean" style="shape=umlActor;verticalLabelPosition=bottom;verticalAlign=top;html=1;outlineConnect=0;" parent="1" vertex="1">
          <mxGeometry x="104" y="96" width="30" height="60" as="geometry" />
        </mxCell>
        <mxCell id="tYEVkuINWoHFvl_4pbUM-2" value="Director" style="shape=umlActor;verticalLabelPosition=bottom;verticalAlign=top;html=1;outlineConnect=0;" parent="1" vertex="1">
          <mxGeometry x="659" y="102" width="30" height="60" as="geometry" />
        </mxCell>
        <mxCell id="tYEVkuINWoHFvl_4pbUM-3" value="Engineer" style="shape=umlActor;verticalLabelPosition=bottom;verticalAlign=top;html=1;outlineConnect=0;" parent="1" vertex="1">
          <mxGeometry x="104" y="344" width="30" height="60" as="geometry" />
        </mxCell>
        <mxCell id="tYEVkuINWoHFvl_4pbUM-4" value="" style="endArrow=none;html=1;rounded=0;" parent="1" source="tYEVkuINWoHFvl_4pbUM-1" target="tYEVkuINWoHFvl_4pbUM-5" edge="1">
          <mxGeometry width="50" height="50" relative="1" as="geometry">
            <mxPoint x="387" y="307" as="sourcePoint" />
            <mxPoint x="437" y="257" as="targetPoint" />
          </mxGeometry>
        </mxCell>
        <mxCell id="tYEVkuINWoHFvl_4pbUM-5" value="audit_final_bill" style="ellipse;whiteSpace=wrap;html=1;" parent="1" vertex="1">
          <mxGeometry x="197" y="100" width="133" height="40" as="geometry" />
        </mxCell>
        <mxCell id="tYEVkuINWoHFvl_4pbUM-6" value="generate_final_bill" style="ellipse;whiteSpace=wrap;html=1;" parent="1" vertex="1">
          <mxGeometry x="231.5" y="526" width="140" height="44" as="geometry" />
        </mxCell>
        <mxCell id="tYEVkuINWoHFvl_4pbUM-8" value="create_new _request" style="ellipse;whiteSpace=wrap;html=1;" parent="1" vertex="1">
          <mxGeometry x="510" y="417.5" width="142" height="41" as="geometry" />
        </mxCell>
        <mxCell id="tYEVkuINWoHFvl_4pbUM-9" value="issue_work_order" style="ellipse;whiteSpace=wrap;html=1;" parent="1" vertex="1">
          <mxGeometry x="227.5" y="360" width="144" height="44" as="geometry" />
        </mxCell>
        <mxCell id="tYEVkuINWoHFvl_4pbUM-11" value="approve/reject_request" style="ellipse;whiteSpace=wrap;html=1;" parent="1" vertex="1">
          <mxGeometry x="437" y="107.5" width="140" height="49" as="geometry" />
        </mxCell>
        <mxCell id="tYEVkuINWoHFvl_4pbUM-12" value="process_request" style="ellipse;whiteSpace=wrap;html=1;" parent="1" vertex="1">
          <mxGeometry x="197" y="159" width="122" height="39" as="geometry" />
        </mxCell>
        <mxCell id="tYEVkuINWoHFvl_4pbUM-13" value="process_bill" style="ellipse;whiteSpace=wrap;html=1;" parent="1" vertex="1">
          <mxGeometry x="221" y="421" width="157" height="47" as="geometry" />
        </mxCell>
        <mxCell id="tYEVkuINWoHFvl_4pbUM-15" value="Employee" style="shape=umlActor;verticalLabelPosition=bottom;verticalAlign=top;html=1;outlineConnect=0;" parent="1" vertex="1">
          <mxGeometry x="733" y="408" width="30" height="60" as="geometry" />
        </mxCell>
        <mxCell id="tYEVkuINWoHFvl_4pbUM-18" value="" style="endArrow=none;html=1;rounded=0;" parent="1" source="tYEVkuINWoHFvl_4pbUM-8" target="tYEVkuINWoHFvl_4pbUM-15" edge="1">
          <mxGeometry width="50" height="50" relative="1" as="geometry">
            <mxPoint x="387" y="415" as="sourcePoint" />
            <mxPoint x="437" y="365" as="targetPoint" />
          </mxGeometry>
        </mxCell>
        <mxCell id="tYEVkuINWoHFvl_4pbUM-19" value="" style="endArrow=none;html=1;rounded=0;" parent="1" source="tYEVkuINWoHFvl_4pbUM-9" target="tYEVkuINWoHFvl_4pbUM-3" edge="1">
          <mxGeometry width="50" height="50" relative="1" as="geometry">
            <mxPoint x="387" y="346" as="sourcePoint" />
            <mxPoint x="437" y="296" as="targetPoint" />
          </mxGeometry>
        </mxCell>
        <mxCell id="tYEVkuINWoHFvl_4pbUM-20" value="" style="endArrow=none;html=1;rounded=0;" parent="1" source="tYEVkuINWoHFvl_4pbUM-13" target="tYEVkuINWoHFvl_4pbUM-3" edge="1">
          <mxGeometry width="50" height="50" relative="1" as="geometry">
            <mxPoint x="387" y="346" as="sourcePoint" />
            <mxPoint x="437" y="296" as="targetPoint" />
          </mxGeometry>
        </mxCell>
        <mxCell id="tYEVkuINWoHFvl_4pbUM-21" value="&amp;lt;&amp;lt;extend&amp;gt;&amp;gt;" style="html=1;verticalAlign=bottom;labelBackgroundColor=none;endArrow=open;endFill=0;dashed=1;rounded=0;" parent="1" source="tYEVkuINWoHFvl_4pbUM-6" target="tYEVkuINWoHFvl_4pbUM-13" edge="1">
          <mxGeometry width="160" relative="1" as="geometry">
            <mxPoint x="332" y="321" as="sourcePoint" />
            <mxPoint x="492" y="321" as="targetPoint" />
          </mxGeometry>
        </mxCell>
        <mxCell id="tYEVkuINWoHFvl_4pbUM-22" value="" style="endArrow=none;html=1;rounded=0;" parent="1" source="tYEVkuINWoHFvl_4pbUM-12" target="tYEVkuINWoHFvl_4pbUM-1" edge="1">
          <mxGeometry width="50" height="50" relative="1" as="geometry">
            <mxPoint x="387" y="346" as="sourcePoint" />
            <mxPoint x="437" y="296" as="targetPoint" />
          </mxGeometry>
        </mxCell>
        <mxCell id="tYEVkuINWoHFvl_4pbUM-23" value="" style="endArrow=none;html=1;rounded=0;" parent="1" source="tYEVkuINWoHFvl_4pbUM-11" target="tYEVkuINWoHFvl_4pbUM-2" edge="1">
          <mxGeometry width="50" height="50" relative="1" as="geometry">
            <mxPoint x="402" y="346" as="sourcePoint" />
            <mxPoint x="452" y="296" as="targetPoint" />
          </mxGeometry>
        </mxCell>
        <mxCell id="GuobZG4STEc3VeXIjwW7-1" value="create_new _request" style="ellipse;whiteSpace=wrap;html=1;" parent="1" vertex="1">
          <mxGeometry x="227.5" y="289" width="142" height="41" as="geometry" />
        </mxCell>
        <mxCell id="c1iYkqvl2ZyfDL6o9qHg-1" value="" style="endArrow=none;html=1;rounded=0;" parent="1" source="GuobZG4STEc3VeXIjwW7-1" target="tYEVkuINWoHFvl_4pbUM-3" edge="1">
          <mxGeometry width="50" height="50" relative="1" as="geometry">
            <mxPoint x="387" y="317" as="sourcePoint" />
            <mxPoint x="437" y="267" as="targetPoint" />
          </mxGeometry>
        </mxCell>
        <mxCell id="tJTZUaEmS2Se7dMjwlWz-1" value="acct_admin" style="shape=umlActor;verticalLabelPosition=bottom;verticalAlign=top;html=1;outlineConnect=0;" vertex="1" parent="1">
          <mxGeometry x="730" y="275" width="30" height="60" as="geometry" />
        </mxCell>
        <mxCell id="tJTZUaEmS2Se7dMjwlWz-2" value="settle_bill" style="ellipse;whiteSpace=wrap;html=1;" vertex="1" parent="1">
          <mxGeometry x="457" y="289" width="132" height="39" as="geometry" />
        </mxCell>
        <mxCell id="tJTZUaEmS2Se7dMjwlWz-3" value="" style="endArrow=none;html=1;rounded=0;" edge="1" parent="1" source="tJTZUaEmS2Se7dMjwlWz-2" target="tJTZUaEmS2Se7dMjwlWz-1">
          <mxGeometry width="50" height="50" relative="1" as="geometry">
            <mxPoint x="387" y="253" as="sourcePoint" />
            <mxPoint x="437" y="203" as="targetPoint" />
          </mxGeometry>
        </mxCell>
        <mxCell id="tJTZUaEmS2Se7dMjwlWz-4" value="iwd_admin" style="shape=umlActor;verticalLabelPosition=bottom;verticalAlign=top;html=1;outlineConnect=0;" vertex="1" parent="1">
          <mxGeometry x="709" y="555" width="30" height="60" as="geometry" />
        </mxCell>
        <mxCell id="tJTZUaEmS2Se7dMjwlWz-5" value="manage_inventory" style="ellipse;whiteSpace=wrap;html=1;" vertex="1" parent="1">
          <mxGeometry x="476" y="574" width="132" height="41" as="geometry" />
        </mxCell>
        <mxCell id="tJTZUaEmS2Se7dMjwlWz-6" value="" style="endArrow=none;html=1;rounded=0;" edge="1" parent="1" source="tJTZUaEmS2Se7dMjwlWz-5" target="tJTZUaEmS2Se7dMjwlWz-4">
          <mxGeometry width="50" height="50" relative="1" as="geometry">
            <mxPoint x="387" y="484" as="sourcePoint" />
            <mxPoint x="437" y="434" as="targetPoint" />
          </mxGeometry>
        </mxCell>
      </root>
    </mxGraphModel>
  </diagram>
</mxfile>
